<?xml version="1.0" encoding="utf-8"?>
<!-- Generator: Adobe Illustrator 24.2.1, SVG Export Plug-In . SVG Version: 6.00 Build 0)  -->
<svg version="1.1" id="Layer_1" xmlns="http://www.w3.org/2000/svg" xmlns:xlink="http://www.w3.org/1999/xlink" x="0px" y="0px"
	 viewBox="0 0 595.28 841.89" style="enable-background:new 0 0 595.28 841.89;" xml:space="preserve">
<style type="text/css">
	.st0{fill:#1E6A54;}
</style>
<g>
	<path class="st0" d="M151.23,403.16h-25.41l-4.1,14.39l-30.98-27.17l46.06-27.28l-3.97,14.5h40.76l10.11-35.46h-61.11
		c-28.64,0-54.36,22.07-59.34,48.25c-5.81,30.53,16.78,48.25,43.42,48.25h25.41l4.1-14.39l30.98,27.17l-46.06,27.28l3.97-14.5H84.31
		L74.2,499.65h61.11c27.46,0,54.36-22.07,59.34-48.25C200.47,420.87,177.88,403.16,151.23,403.16z"/>
	<g>
		<path d="M260.46,385.87c-2.68-1.59-5.7-2.39-8.97-2.39h-21.87c-1.13,0-2.06-0.39-2.85-1.19c-0.8-0.81-1.18-1.75-1.18-2.88
			c0-1.13,0.39-2.08,1.18-2.88c0.79-0.8,1.72-1.19,2.85-1.19h37.48v-13.72h-37.48c-3.25,0-6.26,0.81-8.95,2.41
			c-2.68,1.59-4.83,3.75-6.41,6.41c-1.59,2.68-2.39,5.7-2.39,8.97c0,3.24,0.8,6.25,2.39,8.95c1.58,2.68,3.74,4.84,6.42,6.42
			c2.69,1.59,5.7,2.39,8.95,2.39h21.87c1.13,0,2.07,0.39,2.88,1.2c0.81,0.81,1.2,1.75,1.2,2.88c0,1.15-0.39,2.1-1.19,2.89
			c-0.81,0.8-1.75,1.18-2.88,1.18h-37.44v13.72h37.44c3.27,0,6.29-0.81,8.97-2.41c2.66-1.59,4.82-3.75,6.41-6.41
			c1.6-2.68,2.41-5.7,2.41-8.97c0-3.25-0.81-6.26-2.41-8.95C265.28,389.61,263.12,387.45,260.46,385.87z"/>
		<path d="M292.38,361.61l-22.98,57.42h15.05l4.24-10.93h20.19l4.24,10.93h15.02l-22.94-57.42H292.38z M303.56,394.38h-9.53
			l4.77-12.24L303.56,394.38z"/>
		<rect x="333.04" y="361.61" width="13.72" height="57.42"/>
		<path d="M365.62,365.5c-4.31,2.57-7.8,6.06-10.37,10.37c-2.58,4.33-3.89,9.2-3.89,14.48c0,5.25,1.31,10.11,3.89,14.44
			c2.57,4.31,6.06,7.8,10.37,10.37c4.33,2.58,9.18,3.89,14.44,3.89h28.73v-35.55h-19.53l-9.18,13.68h14.99v8.15h-15.01
			c-2.74,0-5.28-0.67-7.53-2c-2.27-1.34-4.1-3.17-5.43-5.43c-1.33-2.25-2-4.79-2-7.53c0-2.77,0.67-5.3,2-7.55
			c1.34-2.26,3.17-4.09,5.44-5.44c2.26-1.34,4.79-2.02,7.53-2.02h28.73v-13.72h-28.73C374.81,361.61,369.95,362.92,365.62,365.5z"/>
		<path d="M457.49,365.5c-4.34-2.58-9.2-3.88-14.45-3.88s-10.11,1.31-14.45,3.88c-4.32,2.57-7.81,6.06-10.37,10.37
			c-2.56,4.33-3.87,9.2-3.87,14.47c0,5.25,1.3,10.11,3.87,14.43c2.56,4.32,6.05,7.8,10.37,10.37c4.34,2.58,9.2,3.89,14.45,3.89
			s10.12-1.31,14.45-3.88c4.32-2.57,7.82-6.06,10.39-10.37c2.58-4.33,3.89-9.18,3.89-14.44c0-5.28-1.31-10.15-3.89-14.48
			C465.31,371.56,461.81,368.07,457.49,365.5z M450.58,403.31c-4.47,2.65-10.55,2.67-15.08,0c-2.27-1.34-4.1-3.17-5.45-5.44
			c-1.34-2.25-2.02-4.78-2.02-7.53c0-2.76,0.68-5.3,2.02-7.54c1.35-2.26,3.19-4.09,5.46-5.44c2.26-1.34,4.79-2.02,7.53-2.02
			c2.76,0,5.3,0.68,7.54,2.02c2.26,1.35,4.09,3.18,5.44,5.44c1.34,2.24,2.02,4.78,2.02,7.54c0,2.74-0.68,5.27-2.02,7.53
			C454.67,400.14,452.84,401.97,450.58,403.31z"/>
		<polygon points="521.02,361.61 521.02,396.48 490.28,361.61 477.32,361.61 477.32,419.03 491.04,419.03 491.04,384.17 
			521.79,419.03 534.74,419.03 534.74,361.61 		"/>
	</g>
	<g>
		<path class="st0" d="M426.44,465.38c-0.92,0-1.6-0.29-2.16-0.92c-0.47-0.53-0.69-1.12-0.69-1.84c0-0.15,0.01-0.29,0.03-0.44
			l0.53-5.14h11.01l-0.33,3.44h10.58l0.55-5.76l-18.7-5.18c-0.69-0.19-1.18-0.54-1.56-1.11c-0.31-0.47-0.47-0.98-0.47-1.55
			c0-0.13,0.01-0.27,0.02-0.41l0.72-6.94c0.11-0.97,0.55-1.79,1.33-2.5c0.77-0.7,1.6-1.04,2.54-1.04h25.97
			c0.92,0,1.6,0.29,2.16,0.92c0.47,0.53,0.69,1.12,0.69,1.84c0,0.14-0.01,0.29-0.03,0.44l-0.48,4.71h-11.02l0.29-3.01h-10.57
			l-0.5,5.23l18.7,5.18c0.46,0.13,0.83,0.33,1.13,0.61c0.31,0.29,0.54,0.64,0.69,1.06c0.13,0.34,0.19,0.71,0.19,1.11
			c0,0.11-0.01,0.23-0.01,0.34l-0.81,7.46c-0.09,0.96-0.51,1.76-1.28,2.47c-0.77,0.7-1.6,1.04-2.54,1.04H426.44z"/>
		<path class="st0" d="M390.17,465.38c-0.92,0-1.6-0.29-2.16-0.92c-0.47-0.53-0.69-1.12-0.69-1.84c0-0.15,0.01-0.29,0.03-0.44
			l0.53-5.14h11.01l-0.33,3.44h10.58l0.55-5.76l-18.7-5.18c-0.69-0.19-1.18-0.54-1.56-1.11c-0.31-0.47-0.47-0.98-0.47-1.55
			c0-0.13,0.01-0.27,0.02-0.41l0.72-6.94c0.11-0.97,0.55-1.79,1.33-2.5c0.77-0.7,1.6-1.04,2.54-1.04h25.97
			c0.92,0,1.6,0.29,2.16,0.92c0.47,0.53,0.69,1.12,0.69,1.84c0,0.14-0.01,0.29-0.03,0.44l-0.48,4.71h-11.02l0.29-3.01h-10.57
			l-0.5,5.23l18.7,5.18c0.46,0.13,0.83,0.33,1.13,0.61c0.31,0.29,0.54,0.64,0.69,1.06c0.13,0.34,0.19,0.71,0.19,1.11
			c0,0.11-0.01,0.23-0.01,0.34l-0.81,7.46c-0.09,0.96-0.51,1.76-1.28,2.47c-0.77,0.7-1.6,1.04-2.54,1.04H390.17z"/>
		<polygon class="st0" points="355.58,465.38 358.69,436.02 386.11,436.02 385.59,440.89 369.16,440.89 368.41,448.29 
			383.58,448.29 383.06,453.2 367.87,453.2 367.11,460.47 383.54,460.47 383.01,465.38 		"/>
		<path class="st0" d="M353.66,436.93c-0.56-0.62-1.25-0.91-2.17-0.91h-29.42l-3.1,29.35h11.05l1.15-11.08h7.09l2.39,11.08h11.8
			l-1.34-6.84c-0.08-0.33-0.2-0.59-0.36-0.82c-0.15-0.19-0.34-0.34-0.58-0.46c-0.27-0.12-0.55-0.19-0.86-0.19h-0.59l-0.82-4.4h1.56
			c0.62,0,1.2-0.15,1.76-0.47c0.59-0.33,1.07-0.76,1.46-1.32c0.37-0.53,0.58-1.09,0.65-1.72l1.05-9.96
			c0.01-0.13,0.02-0.25,0.02-0.37C354.37,438.08,354.15,437.48,353.66,436.93z M342.26,449.01h-10.51l0.78-8.08h10.59L342.26,449.01
			z"/>
		<path class="st0" d="M317.03,436.95c-0.56-0.63-1.24-0.92-2.16-0.92h-29.42l-3.1,29.35h11.05l1.15-11.03h18.09
			c0.63,0,1.21-0.16,1.79-0.47c0.6-0.33,1.07-0.75,1.44-1.3c0.36-0.53,0.57-1.1,0.64-1.74l1.24-11.63c0.01-0.12,0.02-0.24,0.02-0.36
			C317.75,438.11,317.52,437.51,317.03,436.95z M305.59,449.44h-10.53l0.91-8.51h10.53L305.59,449.44z"/>
		<path class="st0" d="M266.76,465.38l-1.47-4.71c-0.44-1.33-0.65-2.71-0.65-4.11c0-0.54,0.03-1.09,0.1-1.64l0.2-1.76h-4.42
			l-0.16,1.4c-0.23,2.03-0.83,4-1.79,5.85l-2.65,4.97h-11.15l7.89-14.5l-4.92-14.85h11.53l1.38,4.69c0.41,1.34,0.62,2.71,0.62,4.09
			c0,0.56-0.03,1.12-0.1,1.68l-0.2,1.76h4.42l0.16-1.4c0.23-2,0.84-3.98,1.8-5.86l2.52-4.96h11.27l-7.89,14.55l4.92,14.8H266.76z"/>
		<polygon class="st0" points="213.03,465.38 216.13,436.02 243.55,436.02 243.03,440.89 226.6,440.89 225.85,448.29 241.03,448.29 
			240.5,453.2 225.32,453.2 224.56,460.47 240.98,460.47 240.45,465.38 		"/>
	</g>
</g>
</svg>
