<?xml version="1.0" encoding="utf-8"?>
<!-- Generator: Adobe Illustrator 22.0.0, SVG Export Plug-In . SVG Version: 6.00 Build 0)  -->
<svg version="1.1" id="Layer_1" xmlns="http://www.w3.org/2000/svg" xmlns:xlink="http://www.w3.org/1999/xlink" x="0px" y="0px"
	 viewBox="0 0 21.2 19.5" style="enable-background:new 0 0 21.2 19.5;" xml:space="preserve">
<style type="text/css">
	.st0{fill:#487BEC;stroke:#487BEC;stroke-width:0.5;stroke-miterlimit:10;}
</style>
<g>
	<g>
		<path class="st0" d="M13.3,18.7V0.8c0-0.3-0.2-0.5-0.5-0.5c-0.1,0-0.2,0-0.3,0.1L5.4,4.7H2.3c-1.1,0-2.1,0.9-2.1,2.1v6.1
			c0,1.1,0.9,2.1,2.1,2.1h3.1l7.1,4.2c0.2,0.1,0.6,0.1,0.7-0.2C13.3,18.9,13.3,18.8,13.3,18.7L13.3,18.7z M1.6,13.6
			c-0.2-0.2-0.3-0.5-0.3-0.7V6.7c0-0.6,0.5-1,1-1H5v8.2H2.3C2,13.9,1.8,13.8,1.6,13.6z M12.3,17.8l-6.2-3.7V5.5l6.2-3.8V17.8z"/>
	</g>
</g>
</svg>
